<?xml version="1.0" encoding="UTF-8"?>
<svg xmlns="http://www.w3.org/2000/svg" xmlns:xlink="http://www.w3.org/1999/xlink" width="30px" height="30px" viewBox="0 0 30 30" version="1.1">
<g id="surface1">
<path style=" stroke:none;fill-rule:nonzero;fill:rgb(0%,0%,0%);fill-opacity:1;" d="M 1.875 22.5 C 1.878906 24.09375 2.558594 25.609375 3.75 26.664062 L 3.75 29.0625 C 3.75 29.582031 4.167969 30 4.6875 30 L 6.5625 30 C 7.082031 30 7.5 29.582031 7.5 29.0625 L 7.5 28.125 L 22.5 28.125 L 22.5 29.0625 C 22.5 29.582031 22.917969 30 23.4375 30 L 25.3125 30 C 25.832031 30 26.25 29.582031 26.25 29.0625 L 26.25 26.664062 C 27.441406 25.609375 28.121094 24.09375 28.125 22.5 L 28.125 19.6875 L 1.875 19.6875 Z M 29.0625 15 L 4.6875 15 L 4.6875 4.0625 C 4.691406 3.558594 4.996094 3.105469 5.457031 2.914062 C 5.921875 2.722656 6.457031 2.828125 6.8125 3.179688 L 7.945312 4.3125 C 7.179688 6.0625 7.5 7.773438 8.449219 8.984375 L 8.4375 8.992188 C 8.078125 9.359375 8.078125 9.945312 8.4375 10.3125 L 9.101562 10.976562 C 9.464844 11.339844 10.058594 11.339844 10.421875 10.976562 L 16.601562 4.796875 C 16.964844 4.433594 16.964844 3.839844 16.601562 3.476562 L 15.9375 2.8125 C 15.570312 2.449219 14.980469 2.449219 14.613281 2.8125 L 14.601562 2.824219 C 13.394531 1.875 11.683594 1.546875 9.929688 2.320312 L 8.800781 1.1875 C 7.640625 0.03125 5.894531 -0.3125 4.378906 0.316406 C 2.867188 0.945312 1.878906 2.421875 1.875 4.0625 L 1.875 15 L 0.9375 15 C 0.417969 15 0 15.417969 0 15.9375 L 0 16.875 C 0 17.394531 0.417969 17.8125 0.9375 17.8125 L 29.0625 17.8125 C 29.582031 17.8125 30 17.394531 30 16.875 L 30 15.9375 C 30 15.417969 29.582031 15 29.0625 15 Z M 29.0625 15 "/>
</g>
</svg>
