<?xml version="1.0" encoding="UTF-8"?>
<svg xmlns="http://www.w3.org/2000/svg" xmlns:xlink="http://www.w3.org/1999/xlink" width="30px" height="30px" viewBox="0 0 30 30" version="1.1">
<g id="surface1">
<path style=" stroke:none;fill-rule:nonzero;fill:rgb(0%,0%,0%);fill-opacity:1;" d="M 0.46875 17.34375 C 0.207031 17.34375 0 17.132812 0 16.875 C 0 15.066406 1.472656 13.59375 3.28125 13.59375 C 3.542969 13.59375 3.75 13.800781 3.75 14.0625 C 3.75 14.320312 3.542969 14.53125 3.28125 14.53125 C 1.988281 14.53125 0.9375 15.582031 0.9375 16.875 C 0.9375 17.132812 0.730469 17.34375 0.46875 17.34375 Z M 29.53125 17.34375 C 29.273438 17.34375 29.0625 17.132812 29.0625 16.875 C 29.0625 15.582031 28.011719 14.53125 26.71875 14.53125 C 26.457031 14.53125 26.25 14.320312 26.25 14.0625 C 26.25 13.800781 26.457031 13.59375 26.71875 13.59375 C 28.527344 13.59375 30 15.066406 30 16.875 C 30 17.132812 29.792969 17.34375 29.53125 17.34375 Z M 29.53125 17.34375 "/>
<path style=" stroke:none;fill-rule:nonzero;fill:rgb(0%,0%,0%);fill-opacity:1;" d="M 26.71875 14.53125 L 3.28125 14.53125 C 3.019531 14.53125 2.8125 14.320312 2.8125 14.0625 C 2.8125 13.800781 3.019531 13.59375 3.28125 13.59375 L 26.71875 13.59375 C 26.980469 13.59375 27.1875 13.800781 27.1875 14.0625 C 27.1875 14.320312 26.980469 14.53125 26.71875 14.53125 Z M 0.46875 22.035156 C 0.207031 22.035156 0 21.824219 0 21.566406 L 0 16.875 C 0 16.613281 0.207031 16.40625 0.46875 16.40625 C 0.730469 16.40625 0.9375 16.613281 0.9375 16.875 L 0.9375 21.566406 C 0.9375 21.824219 0.730469 22.035156 0.46875 22.035156 Z M 0.46875 22.035156 "/>
<path style=" stroke:none;fill-rule:nonzero;fill:rgb(0%,0%,0%);fill-opacity:1;" d="M 1.40625 22.972656 C 0.628906 22.972656 0 22.339844 0 21.566406 C 0 21.304688 0.207031 21.097656 0.46875 21.097656 C 0.730469 21.097656 0.9375 21.304688 0.9375 21.566406 C 0.9375 21.824219 1.148438 22.035156 1.40625 22.035156 C 1.667969 22.035156 1.875 22.242188 1.875 22.503906 C 1.875 22.761719 1.667969 22.972656 1.40625 22.972656 Z M 29.53125 22.035156 C 29.269531 22.035156 29.0625 21.824219 29.0625 21.566406 L 29.0625 16.875 C 29.0625 16.613281 29.269531 16.40625 29.53125 16.40625 C 29.792969 16.40625 30 16.613281 30 16.875 L 30 21.566406 C 30 21.824219 29.792969 22.035156 29.53125 22.035156 Z M 29.53125 22.035156 "/>
<path style=" stroke:none;fill-rule:nonzero;fill:rgb(0%,0%,0%);fill-opacity:1;" d="M 28.59375 22.972656 C 28.332031 22.972656 28.125 22.761719 28.125 22.503906 C 28.125 22.242188 28.332031 22.035156 28.59375 22.035156 C 28.851562 22.035156 29.0625 21.824219 29.0625 21.566406 C 29.0625 21.304688 29.269531 21.097656 29.53125 21.097656 C 29.792969 21.097656 30 21.304688 30 21.566406 C 30 22.339844 29.371094 22.972656 28.59375 22.972656 Z M 28.59375 22.972656 "/>
<path style=" stroke:none;fill-rule:nonzero;fill:rgb(0%,0%,0%);fill-opacity:1;" d="M 28.59375 22.972656 L 1.40625 22.972656 C 1.144531 22.972656 0.9375 22.761719 0.9375 22.503906 C 0.9375 22.242188 1.144531 22.035156 1.40625 22.035156 L 28.59375 22.035156 C 28.855469 22.035156 29.0625 22.242188 29.0625 22.503906 C 29.0625 22.761719 28.855469 22.972656 28.59375 22.972656 Z M 29.53125 20.625 L 0.46875 20.625 C 0.207031 20.625 0 20.417969 0 20.15625 C 0 19.898438 0.207031 19.6875 0.46875 19.6875 L 29.53125 19.6875 C 29.792969 19.6875 30 19.898438 30 20.15625 C 30 20.417969 29.792969 20.625 29.53125 20.625 Z M 29.53125 20.625 "/>
<path style=" stroke:none;fill-rule:nonzero;fill:rgb(0%,0%,0%);fill-opacity:1;" d="M 2.34375 24.84375 C 2.085938 24.84375 1.875 24.636719 1.875 24.375 L 1.875 22.503906 C 1.875 22.242188 2.085938 22.035156 2.34375 22.035156 C 2.605469 22.035156 2.8125 22.242188 2.8125 22.503906 L 2.8125 24.375 C 2.8125 24.636719 2.605469 24.84375 2.34375 24.84375 Z M 2.34375 24.84375 "/>
<path style=" stroke:none;fill-rule:nonzero;fill:rgb(0%,0%,0%);fill-opacity:1;" d="M 7.03125 24.84375 L 2.34375 24.84375 C 2.085938 24.84375 1.875 24.636719 1.875 24.375 C 1.875 24.117188 2.085938 23.90625 2.34375 23.90625 L 7.03125 23.90625 C 7.292969 23.90625 7.5 24.117188 7.5 24.375 C 7.5 24.636719 7.292969 24.84375 7.03125 24.84375 Z M 7.03125 24.84375 "/>
<path style=" stroke:none;fill-rule:nonzero;fill:rgb(0%,0%,0%);fill-opacity:1;" d="M 7.03125 24.84375 C 6.773438 24.84375 6.5625 24.636719 6.5625 24.375 L 6.5625 22.503906 C 6.5625 22.242188 6.773438 22.035156 7.03125 22.035156 C 7.292969 22.035156 7.5 22.242188 7.5 22.503906 L 7.5 24.375 C 7.5 24.636719 7.292969 24.84375 7.03125 24.84375 Z M 22.96875 24.84375 C 22.707031 24.84375 22.5 24.636719 22.5 24.375 L 22.5 22.503906 C 22.5 22.242188 22.707031 22.035156 22.96875 22.035156 C 23.226562 22.035156 23.4375 22.242188 23.4375 22.503906 L 23.4375 24.375 C 23.4375 24.636719 23.226562 24.84375 22.96875 24.84375 Z M 22.96875 24.84375 "/>
<path style=" stroke:none;fill-rule:nonzero;fill:rgb(0%,0%,0%);fill-opacity:1;" d="M 27.65625 24.84375 L 22.96875 24.84375 C 22.707031 24.84375 22.5 24.636719 22.5 24.375 C 22.5 24.117188 22.707031 23.90625 22.96875 23.90625 L 27.65625 23.90625 C 27.914062 23.90625 28.125 24.117188 28.125 24.375 C 28.125 24.636719 27.914062 24.84375 27.65625 24.84375 Z M 27.65625 24.84375 "/>
<path style=" stroke:none;fill-rule:nonzero;fill:rgb(0%,0%,0%);fill-opacity:1;" d="M 27.65625 24.84375 C 27.394531 24.84375 27.1875 24.636719 27.1875 24.375 L 27.1875 22.503906 C 27.1875 22.242188 27.394531 22.035156 27.65625 22.035156 C 27.914062 22.035156 28.125 22.242188 28.125 22.503906 L 28.125 24.375 C 28.125 24.636719 27.914062 24.84375 27.65625 24.84375 Z M 3.28125 14.53125 C 3.019531 14.53125 2.8125 14.320312 2.8125 14.0625 L 2.8125 6.5625 C 2.8125 6.304688 3.019531 6.09375 3.28125 6.09375 C 3.542969 6.09375 3.75 6.304688 3.75 6.5625 L 3.75 14.0625 C 3.75 14.320312 3.542969 14.53125 3.28125 14.53125 Z M 26.71875 14.53125 C 26.457031 14.53125 26.25 14.320312 26.25 14.0625 L 26.25 6.5625 C 26.25 6.304688 26.457031 6.09375 26.71875 6.09375 C 26.980469 6.09375 27.1875 6.304688 27.1875 6.5625 L 27.1875 14.0625 C 27.1875 14.320312 26.980469 14.53125 26.71875 14.53125 Z M 25.78125 6.09375 L 4.21875 6.09375 C 3.960938 6.09375 3.75 5.882812 3.75 5.625 C 3.75 5.367188 3.960938 5.15625 4.21875 5.15625 L 25.78125 5.15625 C 26.039062 5.15625 26.25 5.367188 26.25 5.625 C 26.25 5.882812 26.039062 6.09375 25.78125 6.09375 Z M 6.09375 12.65625 C 5.832031 12.65625 5.625 12.449219 5.625 12.1875 C 5.625 11.410156 6.253906 10.78125 7.03125 10.78125 C 7.289062 10.78125 7.5 10.992188 7.5 11.25 C 7.5 11.507812 7.289062 11.71875 7.03125 11.71875 C 6.769531 11.71875 6.5625 11.929688 6.5625 12.1875 C 6.5625 12.449219 6.351562 12.65625 6.09375 12.65625 Z M 13.59375 12.65625 C 13.335938 12.65625 13.125 12.449219 13.125 12.1875 C 13.125 11.929688 12.917969 11.71875 12.65625 11.71875 C 12.398438 11.71875 12.1875 11.511719 12.1875 11.25 C 12.1875 10.992188 12.398438 10.78125 12.65625 10.78125 C 13.433594 10.78125 14.0625 11.410156 14.0625 12.1875 C 14.0625 12.449219 13.855469 12.65625 13.59375 12.65625 Z M 13.59375 12.65625 "/>
<path style=" stroke:none;fill-rule:nonzero;fill:rgb(0%,0%,0%);fill-opacity:1;" d="M 6.09375 14.53125 C 5.832031 14.53125 5.625 14.324219 5.625 14.0625 L 5.625 12.1875 C 5.625 11.929688 5.832031 11.71875 6.09375 11.71875 C 6.351562 11.71875 6.5625 11.929688 6.5625 12.1875 L 6.5625 14.0625 C 6.5625 14.324219 6.351562 14.53125 6.09375 14.53125 Z M 13.59375 14.53125 C 13.335938 14.53125 13.125 14.320312 13.125 14.0625 L 13.125 12.1875 C 13.125 11.929688 13.335938 11.71875 13.59375 11.71875 C 13.855469 11.71875 14.0625 11.929688 14.0625 12.1875 L 14.0625 14.0625 C 14.0625 14.320312 13.855469 14.53125 13.59375 14.53125 Z M 12.65625 11.71875 L 7.03125 11.71875 C 6.769531 11.71875 6.5625 11.511719 6.5625 11.25 C 6.5625 10.992188 6.769531 10.78125 7.03125 10.78125 L 12.65625 10.78125 C 12.917969 10.78125 13.125 10.992188 13.125 11.25 C 13.125 11.511719 12.917969 11.71875 12.65625 11.71875 Z M 16.40625 12.65625 C 16.144531 12.65625 15.9375 12.449219 15.9375 12.1875 C 15.9375 11.410156 16.566406 10.78125 17.34375 10.78125 C 17.605469 10.78125 17.8125 10.992188 17.8125 11.25 C 17.8125 11.507812 17.605469 11.71875 17.34375 11.71875 C 17.085938 11.71875 16.875 11.929688 16.875 12.1875 C 16.875 12.449219 16.667969 12.65625 16.40625 12.65625 Z M 23.910156 12.65625 C 23.648438 12.65625 23.441406 12.449219 23.441406 12.1875 C 23.441406 11.929688 23.230469 11.71875 22.972656 11.71875 C 22.710938 11.71875 22.503906 11.511719 22.503906 11.25 C 22.503906 10.992188 22.710938 10.78125 22.972656 10.78125 C 23.746094 10.78125 24.378906 11.410156 24.378906 12.1875 C 24.378906 12.449219 24.167969 12.65625 23.910156 12.65625 Z M 23.910156 12.65625 "/>
<path style=" stroke:none;fill-rule:nonzero;fill:rgb(0%,0%,0%);fill-opacity:1;" d="M 16.40625 14.53125 C 16.144531 14.53125 15.9375 14.324219 15.9375 14.0625 L 15.9375 12.1875 C 15.9375 11.929688 16.144531 11.71875 16.40625 11.71875 C 16.667969 11.71875 16.875 11.929688 16.875 12.1875 L 16.875 14.0625 C 16.875 14.324219 16.667969 14.53125 16.40625 14.53125 Z M 23.910156 14.53125 C 23.648438 14.53125 23.441406 14.320312 23.441406 14.0625 L 23.441406 12.1875 C 23.441406 11.929688 23.648438 11.71875 23.910156 11.71875 C 24.167969 11.71875 24.378906 11.929688 24.378906 12.1875 L 24.378906 14.0625 C 24.378906 14.320312 24.167969 14.53125 23.910156 14.53125 Z M 22.972656 11.71875 L 17.34375 11.71875 C 17.082031 11.71875 16.875 11.511719 16.875 11.25 C 16.875 10.992188 17.082031 10.78125 17.34375 10.78125 L 22.972656 10.78125 C 23.230469 10.78125 23.441406 10.992188 23.441406 11.25 C 23.441406 11.511719 23.230469 11.71875 22.972656 11.71875 Z M 3.28125 7.03125 C 3.019531 7.03125 2.8125 6.820312 2.8125 6.5625 C 2.8125 5.785156 3.441406 5.15625 4.21875 5.15625 C 4.480469 5.15625 4.6875 5.363281 4.6875 5.625 C 4.6875 5.882812 4.480469 6.09375 4.21875 6.09375 C 3.960938 6.09375 3.75 6.304688 3.75 6.5625 C 3.75 6.820312 3.542969 7.03125 3.28125 7.03125 Z M 3.28125 7.03125 "/>
<path style=" stroke:none;fill-rule:nonzero;fill:rgb(0%,0%,0%);fill-opacity:1;" d="M 26.71875 7.03125 C 26.457031 7.03125 26.25 6.820312 26.25 6.5625 C 26.25 6.304688 26.039062 6.09375 25.78125 6.09375 C 25.519531 6.09375 25.3125 5.882812 25.3125 5.625 C 25.3125 5.363281 25.519531 5.15625 25.78125 5.15625 C 26.558594 5.15625 27.1875 5.785156 27.1875 6.5625 C 27.1875 6.824219 26.980469 7.03125 26.71875 7.03125 Z M 26.71875 7.03125 "/>
</g>
</svg>
